<svg id="Layer_1" data-name="Layer 1" xmlns="http://www.w3.org/2000/svg" xmlns:xlink="http://www.w3.org/1999/xlink" width="17.17cm" height="19.96cm" viewBox="0 0 486.77 565.93">
  <defs>
    <clipPath id="clip-path" transform="translate(-20.59 -8.5)">
      <polygon points="-15.79 291 175.83 292.6 175.83 108.69 677.12 108.69 677.12 595.28 -15.79 595.28 -15.79 291" style="fill: none"/>
    </clipPath>
  </defs>
  <g>
    <path d="M92.37,232.22c28-23.22,17.87-43.36,7.72-55.62C91.32,166,80.91,156.65,70.51,147.31s-21.18-19.1-29.95-29.71C7.64,77.88,20.25,43.39,52.92,16.33l8.27-6.86L79.11,31.11l-7,5.85c-22.05,18.29-21,38-2.7,60.09,7.86,9.49,16.48,17.57,26.25,26.09a229.64,229.64,0,0,1,27.53,27.63c21.35,24.85,21.39,47.37,7.29,66.38l.63.82c21.61-10,43.05-6.52,63.58,19,8.78,10.62,15.42,21,22,32.2,6.33,10.78,13,21.18,20.47,30.26,17.65,21.24,36,27.32,59.21,8l7.05-5.85,17.92,21.64L313,330.07c-33.49,27.79-69.79,32.05-99.87-4.2-9.14-11-16.48-23-24-35.33s-15.13-24.61-24.27-35.63c-11.43-13.79-28.11-25.91-56.09-2.68Z" transform="translate(-20.59 -8.5)" style="stroke: #000;stroke-miterlimit: 10;stroke-width: 1.374919351747242px"/>
    <g style="clip-path: url(#clip-path)">
      <rect x="84.01" y="144.64" width="385.48" height="404" style="fill: none;stroke: #000;stroke-miterlimit: 10;stroke-width: 34.579068974652245px"/>
    </g>
  </g>
</svg>
