<svg width="153" height="34" viewBox="0 0 153 34" fill="none" xmlns="http://www.w3.org/2000/svg">
<g clip-path="url(#clip0_3403_276)">
<path d="M7.8457 20.8329C16.4619 25.8163 21.0003 19.5664 21.0003 19.5664L17.2926 12.2373C15.5331 13.7586 10.9947 17.1833 7.85325 20.8254L7.8457 20.8329Z" fill="white"/>
<path d="M18.4934 2.18074C19.7318 2.8477 22.0727 7.24664 22.8807 8.61054C23.7567 10.1018 30.0018 22.6842 31.1269 23.4261C31.1269 23.4261 32.1766 24.4377 32.5542 24.4078C33.6491 22.1671 34.2683 19.6491 34.2683 16.9888C34.2608 7.61384 26.5961 0 17.1341 0C14.8233 0 12.6259 0.45713 10.6172 1.27397C12.7467 0.674455 16.0014 0.517082 18.4934 2.18074Z" fill="white"/>
<path d="M25.9694 27.0755C24.3307 25.6816 23.1376 23.1562 22.2012 21.8223C18.5689 24.5576 14.5742 28.0722 8.69164 28.0722C8.69164 28.0722 5.0896 28.0797 3.66992 27.4727C6.81888 31.4445 11.7047 34.0074 17.1342 34.0074C22.5637 34.0074 27.4041 31.4969 30.538 27.5851C29.4053 28.0123 27.9478 28.2521 25.9694 27.0755Z" fill="white"/>
<path d="M14.6649 10.7461C15.0047 10.2665 15.3446 9.66694 15.624 9.04494C15.624 9.04494 13.4189 2.3004 8.72948 2.18799C3.51898 5.10313 0 10.6412 0 17.0035C0 19.3491 0.483293 21.5898 1.36681 23.6281C8.04985 17.4831 10.6627 16.404 14.6725 10.7461H14.6649Z" fill="white"/>
<path d="M48.2234 7.55371H50.8438L57.9195 23.6207H54.9367L53.3056 19.7688H45.7012L44.0475 23.6207H41.1553L48.231 7.55371H48.2234ZM52.2635 17.2883L49.4845 10.9035L46.7282 17.2883H52.2635Z" fill="white"/>
<path d="M60.668 7.66602H67.8343C69.8581 7.66602 71.4363 8.25804 72.4709 9.26222C73.3167 10.1315 73.8 11.3156 73.8 12.7019V12.7469C73.8 15.3698 72.2141 16.9435 69.9865 17.5805L74.3286 23.6206H70.9757L67.0263 18.0601H63.4922V23.6206H60.668V7.66602ZM67.6304 15.5796C69.6542 15.5796 70.938 14.5305 70.938 12.9118V12.8668C70.938 11.1582 69.6995 10.2214 67.6078 10.2214H63.4998V15.5796H67.6304Z" fill="white"/>
<path d="M76.5642 15.6923V15.6473C76.5642 11.1135 79.985 7.39648 84.8557 7.39648C87.8159 7.39648 89.6131 8.42315 91.146 9.88447L89.3337 11.9603C88.05 10.7763 86.668 9.9744 84.833 9.9744C81.7747 9.9744 79.5244 12.4849 79.5244 15.6023V15.6473C79.5244 18.7723 81.752 21.2977 84.833 21.2977C86.8115 21.2977 88.0726 20.5259 89.447 19.2444L91.2593 21.0654C89.5829 22.7965 87.7479 23.8906 84.7349 23.8906C80.053 23.8906 76.5566 20.2636 76.5566 15.6848L76.5642 15.6923Z" fill="white"/>
<path d="M99.9207 7.55371H102.541L109.617 23.6207H106.634L105.003 19.7688H97.3985L95.7447 23.6207H92.8525L99.9283 7.55371H99.9207ZM103.961 17.2883L101.182 10.9035L98.4255 17.2883H103.961Z" fill="white"/>
<path d="M112.365 7.66602H118.361C123.413 7.66602 126.909 11.1057 126.909 15.5946V15.6396C126.909 20.1284 123.421 23.6206 118.361 23.6206H112.365V7.66602ZM115.189 10.2214V21.0727H118.361C121.737 21.0727 123.942 18.817 123.942 15.692V15.6471C123.942 12.5221 121.737 10.2214 118.361 10.2214H115.189Z" fill="white"/>
<path d="M130.489 7.66602H133.313V23.6206H130.489V7.66602Z" fill="white"/>
<path d="M143.304 7.55371H145.924L153 23.6207H150.017L148.386 19.7688H140.781L139.128 23.6207H136.235L143.311 7.55371H143.304ZM147.344 17.2883L144.565 10.9035L141.808 17.2883H147.344Z" fill="white"/>
</g>
<defs>
<clipPath id="clip0_3403_276">
<rect width="153" height="34" fill="white"/>
</clipPath>
</defs>
</svg>