<svg xmlns="http://www.w3.org/2000/svg" width="1500" height="695" viewBox="0 0 1500 695" version="1.1"><path d="M 399.739 81.594 C 399.333 82.001, 399 85.585, 399 89.558 C 399 96.610, 398.934 96.799, 396.250 97.455 C 388.591 99.326, 383 101.228, 383 101.963 C 383 102.414, 384.238 103.086, 385.750 103.455 C 387.262 103.825, 390.863 104.805, 393.750 105.634 L 399 107.142 399 115.071 C 399 119.432, 399.337 122.973, 399.750 122.941 C 400.163 122.909, 402.867 120.037, 405.760 116.560 L 411.019 110.238 419.184 112.612 C 423.674 113.917, 427.559 114.775, 427.816 114.517 C 428.074 114.259, 426.196 111.511, 423.642 108.409 C 421.089 105.308, 419 102.331, 419 101.795 C 419 101.258, 421.089 98.374, 423.642 95.385 C 426.196 92.396, 428.042 89.709, 427.745 89.412 C 427.449 89.115, 423.538 89.878, 419.055 91.106 L 410.905 93.340 407.702 89.445 C 401.415 81.797, 400.469 80.864, 399.739 81.594 M 488.020 108.679 L 488 116.858 482.750 118.366 C 479.863 119.195, 476.258 120.176, 474.741 120.547 C 470.134 121.673, 470.693 122.771, 476.737 124.476 C 488.559 127.811, 487.440 126.714, 488 135.513 L 488.500 143.369 494.049 137.076 L 499.598 130.783 507.113 132.891 C 511.246 134.051, 515.199 135, 515.898 135 C 516.596 135, 515.668 133.174, 513.834 130.942 C 512 128.710, 509.634 125.798, 508.576 124.470 L 506.651 122.056 511.940 115.976 C 514.849 112.631, 517.030 109.697, 516.788 109.455 C 516.546 109.213, 512.557 110.131, 507.924 111.496 L 499.500 113.978 497.500 111.707 C 496.400 110.458, 493.821 107.426, 491.770 104.968 L 488.039 100.500 488.020 108.679 M 307 111 C 307 116.331, 306.619 119, 305.858 119 C 303.354 119, 290.851 123.186, 291.457 123.821 C 291.814 124.194, 295.344 125.409, 299.303 126.519 L 306.500 128.539 306.818 137.019 L 307.136 145.500 313.318 138.766 L 319.500 132.031 327.750 134.394 C 334.055 136.200, 336 136.446, 336 135.438 C 336 134.712, 335.591 133.865, 335.091 133.556 C 334.590 133.247, 332.358 130.816, 330.129 128.154 L 326.076 123.314 331.159 117.611 C 333.954 114.475, 335.964 111.631, 335.626 111.292 C 335.287 110.953, 331.520 111.652, 327.255 112.845 L 319.500 115.014 314 108.984 C 310.975 105.668, 308.163 102.964, 307.750 102.977 C 307.337 102.990, 307 106.600, 307 111 M 241.792 165.666 L 241.500 173.331 233 176.022 C 228.107 177.571, 225.137 178.963, 226 179.302 C 226.825 179.626, 230.762 180.835, 234.750 181.988 L 242 184.085 242.032 192.292 L 242.063 200.500 244.282 197.968 C 245.502 196.575, 248.116 193.540, 250.091 191.223 L 253.683 187.011 262.010 189.503 C 266.590 190.874, 270.542 191.791, 270.792 191.541 C 271.042 191.292, 268.937 188.324, 266.115 184.946 L 260.983 178.805 266.078 172.402 C 268.880 168.881, 270.600 166, 269.900 166 C 269.200 166, 265.262 166.944, 261.149 168.098 L 253.671 170.197 248.879 164.848 C 246.243 161.907, 244.067 159.162, 244.043 158.750 C 244.019 158.338, 243.569 158, 243.042 158 C 242.515 158, 241.953 161.449, 241.792 165.666 M 555 166.892 C 555 174.671, 554.961 174.793, 552.250 175.455 C 544.973 177.233, 539 179.210, 539 179.842 C 539 180.226, 542.487 181.449, 546.750 182.558 L 554.500 184.575 554.790 192.788 C 554.950 197.304, 555.335 201, 555.647 201 C 555.958 201, 557.177 199.762, 558.356 198.250 C 559.535 196.738, 561.966 193.866, 563.759 191.869 L 567.018 188.238 575.207 190.619 C 579.712 191.929, 583.797 193, 584.285 193 C 584.774 193, 582.884 190.261, 580.087 186.913 C 577.289 183.564, 575 180.374, 575 179.822 C 575 179.270, 577.089 176.374, 579.642 173.385 C 582.196 170.396, 584.036 167.702, 583.732 167.398 C 583.428 167.094, 579.847 167.780, 575.776 168.923 C 571.704 170.065, 567.951 170.997, 567.436 170.993 C 566.921 170.989, 564.278 168.289, 561.563 164.993 C 558.847 161.697, 556.259 159, 555.813 159 C 555.366 159, 555 162.551, 555 166.892 M 580.047 242.618 L 580 250.736 573.750 252.489 C 570.313 253.453, 566.375 254.686, 565 255.230 C 562.594 256.180, 562.669 256.267, 567 257.534 C 569.475 258.259, 573.413 259.352, 575.750 259.964 L 580 261.077 580 269.039 C 580 273.417, 580.337 276.976, 580.750 276.948 C 581.163 276.919, 583.705 274.219, 586.399 270.948 C 589.094 267.676, 591.912 265, 592.662 265 C 593.412 265, 597.251 265.894, 601.193 266.986 C 605.135 268.079, 608.558 268.775, 608.799 268.534 C 609.040 268.294, 607.159 265.664, 604.618 262.690 C 602.078 259.717, 600 256.706, 600 256 C 600 255.294, 602.078 252.283, 604.618 249.310 C 607.159 246.336, 609.025 243.692, 608.766 243.432 C 608.507 243.173, 604.606 243.948, 600.098 245.155 L 591.902 247.349 585.998 240.924 L 580.094 234.500 580.047 242.618 M 217.048 243.781 C 217.015 249.483, 216.611 252.192, 215.750 252.477 C 215.063 252.705, 211.149 253.861, 207.054 255.046 C 198.692 257.467, 198.849 257.787, 209.750 260.549 L 217 262.386 217.029 270.943 L 217.059 279.500 219.779 276.466 C 221.276 274.797, 223.967 271.739, 225.760 269.670 L 229.020 265.907 237.055 268.075 C 241.474 269.268, 245.305 270.028, 245.568 269.765 C 245.831 269.502, 244.011 266.814, 241.523 263.792 C 239.036 260.770, 237 257.890, 237 257.392 C 237 256.893, 239.025 254.017, 241.500 251 C 243.975 247.983, 246 245.204, 246 244.824 C 246 244.444, 242.199 245.179, 237.554 246.457 L 229.108 248.781 223.102 242.141 L 217.096 235.500 217.048 243.781 M 555.797 321.459 L 555.500 329.416 547 332.072 C 537.614 335.004, 537.651 335.126, 548.775 337.926 L 555.500 339.620 556 348.060 L 556.500 356.500 561.849 349.850 L 567.198 343.200 575.849 345.513 C 580.607 346.785, 584.671 347.656, 584.880 347.449 C 585.090 347.242, 582.903 344.351, 580.021 341.024 L 574.781 334.976 577.334 331.738 C 578.739 329.957, 581.120 326.974, 582.626 325.110 L 585.364 321.720 582.432 322.254 C 580.820 322.547, 576.833 323.596, 573.574 324.583 L 567.647 326.379 561.870 319.940 L 556.093 313.501 555.797 321.459 M 242.032 322.301 L 242 330.102 238.750 331.424 C 236.963 332.151, 233.137 333.298, 230.250 333.973 C 227.363 334.647, 225 335.538, 225 335.951 C 225 336.365, 228.037 337.509, 231.750 338.494 C 240.609 340.844, 241.807 341.530, 242.184 344.466 C 242.453 346.564, 243.515 345.479, 249.284 337.216 C 254.586 329.623, 255.708 327.425, 254.420 327.155 C 253.513 326.965, 251.537 325.390, 250.027 323.655 C 248.518 321.920, 246.109 319.150, 244.673 317.500 L 242.063 314.500 242.032 322.301 M 263.035 343.934 C 261.551 346.707, 261.613 346.799, 265.750 347.947 C 271.223 349.467, 271.362 349.341, 268.432 345.500 C 265.374 341.490, 264.482 341.231, 263.035 343.934 M 488.020 378.708 L 488 386.915 480.750 389.012 C 470.891 391.864, 470.631 391.964, 471.309 392.642 C 471.637 392.970, 475.413 394.211, 479.702 395.400 L 487.500 397.562 488 405.744 L 488.500 413.927 493.810 407.463 C 496.731 403.908, 499.431 401.011, 499.810 401.024 C 500.190 401.038, 504.212 402.108, 508.750 403.403 C 513.288 404.698, 517 405.509, 517 405.206 C 517 404.903, 514.750 402.068, 512 398.907 C 509.250 395.745, 507 392.846, 507 392.465 C 507 392.083, 509.309 389.107, 512.130 385.850 C 514.952 382.592, 517.076 379.742, 516.850 379.516 C 516.624 379.290, 512.627 380.220, 507.969 381.582 L 499.500 384.058 497.500 381.748 C 496.400 380.477, 493.821 377.426, 491.770 374.968 L 488.039 370.500 488.020 378.708 M 308.793 380.078 L 308.500 388.416 300 391.069 C 291.798 393.628, 291.599 393.761, 294.315 394.861 C 295.863 395.487, 297.469 396, 297.884 396 C 298.298 396, 300.969 396.692, 303.818 397.539 L 309 399.077 309.006 407.289 L 309.013 415.500 313.256 410.550 C 315.590 407.828, 318.175 404.800, 319 403.821 C 320.433 402.121, 320.880 402.149, 328.975 404.463 C 333.636 405.794, 337.632 406.702, 337.855 406.478 C 338.078 406.255, 335.952 403.408, 333.130 400.150 C 330.309 396.893, 328 393.901, 328 393.500 C 328 393.099, 330.309 390.107, 333.130 386.850 C 335.952 383.592, 338.062 380.729, 337.820 380.487 C 337.577 380.244, 333.598 381.207, 328.977 382.626 L 320.574 385.206 318.537 382.821 C 317.417 381.509, 314.832 378.479, 312.793 376.088 L 309.085 371.739 308.793 380.078 M 399.797 399.420 L 399.500 407.339 395.500 408.616 C 393.300 409.318, 389.574 410.388, 387.220 410.993 C 382.572 412.188, 382.405 413.393, 386.741 414.453 C 388.258 414.824, 391.863 415.805, 394.750 416.634 L 400 418.142 400.032 426.321 L 400.063 434.500 402.282 431.968 C 403.502 430.576, 406.075 427.550, 408 425.245 L 411.500 421.053 419.924 423.519 C 424.557 424.876, 428.546 425.787, 428.788 425.545 C 429.030 425.303, 426.884 422.409, 424.017 419.114 C 418.240 412.471, 418.207 413.042, 424.801 405.250 C 427.244 402.363, 428.654 400, 427.935 400 C 427.216 400, 423.229 400.954, 419.075 402.119 L 411.522 404.239 405.807 397.870 L 400.093 391.501 399.797 399.420" stroke="none" fill="#ffdd0f" fill-rule="evenodd"/><path d="M 133 0.497 C 133 0.770, 103.075 130.657, 66.500 289.135 C 29.925 447.613, 0 578.068, 0 579.035 C 0 580.456, 1.676 581.099, 8.750 582.393 C 83.201 596.012, 161.413 587.674, 262.500 555.340 C 296.477 544.473, 330.976 531.776, 402 504 C 500.302 465.556, 540.999 451.437, 589.500 438.950 C 621.979 430.587, 644.598 426.251, 676 422.368 C 694.162 420.122, 749.534 419.767, 766 421.791 C 776.672 423.102, 798.065 426.628, 801.250 427.601 C 802.212 427.894, 803 427.685, 803 427.134 C 803 426.584, 787.432 388.191, 768.405 341.817 C 749.378 295.443, 733.130 255.813, 732.297 253.750 C 731.464 251.688, 730.398 250, 729.928 250 C 728.763 250, 594.258 331.232, 581.018 339.931 C 579.774 340.749, 580.003 341.394, 582.445 343.942 C 584.045 345.613, 585.155 347.178, 584.912 347.421 C 584.669 347.664, 581.936 347.158, 578.839 346.296 L 573.208 344.729 566.854 348.523 C 563.359 350.610, 559.766 352.942, 558.869 353.705 C 557.973 354.469, 555.723 355.913, 553.869 356.915 C 552.016 357.916, 546.122 361.203, 540.771 364.218 C 529.757 370.425, 519.188 374.820, 507.500 378.056 C 503.100 379.274, 498.858 380.451, 498.072 380.672 C 496.846 381.017, 496.851 381.280, 498.112 382.540 C 499.401 383.829, 500.600 383.710, 508.009 381.556 C 512.645 380.208, 516.624 379.290, 516.850 379.516 C 517.076 379.742, 514.952 382.592, 512.130 385.850 C 509.309 389.107, 507 392.083, 507 392.465 C 507 392.846, 509.250 395.745, 512 398.907 C 514.750 402.068, 517 404.903, 517 405.206 C 517 405.509, 513.288 404.698, 508.750 403.403 C 504.212 402.108, 500.190 401.038, 499.810 401.024 C 499.431 401.011, 496.731 403.908, 493.810 407.463 L 488.500 413.927 488 405.744 L 487.500 397.562 479.702 395.400 C 475.413 394.211, 471.637 392.970, 471.309 392.642 C 470.630 391.963, 470.884 391.866, 480.812 388.994 C 487.173 387.153, 488.083 386.603, 487.812 384.757 C 487.512 382.719, 487.047 382.645, 476 382.886 C 433.172 383.819, 397.575 362.779, 389.905 332 C 387.991 324.321, 388.256 308.006, 390.424 300 C 396.132 278.920, 413.721 257.686, 433.657 247.807 C 448.165 240.618, 457 241.637, 457 250.500 C 457 254.824, 454.079 258, 450.103 258 C 445.266 258, 433.262 264.945, 425.389 272.297 C 409.076 287.531, 401.299 306.261, 404.012 323.782 C 406.380 339.078, 415.645 350.378, 432.500 358.528 C 443.079 363.644, 449.979 365.543, 463.437 367.044 C 480.741 368.973, 501.377 365.496, 520 357.512 C 529.967 353.240, 552.229 340.179, 551.515 339.024 C 551.244 338.585, 549.394 337.921, 547.404 337.548 C 545.414 337.175, 542.597 336.386, 541.143 335.795 C 538.665 334.788, 539.031 334.556, 547 332.069 L 555.500 329.416 555.797 321.459 L 556.093 313.501 561.870 319.940 L 567.647 326.379 573.119 324.823 C 576.742 323.792, 591.405 315.441, 616.545 300.091 C 637.420 287.345, 670.106 267.598, 689.180 256.208 C 708.253 244.819, 723.891 235.108, 723.930 234.629 C 724.097 232.558, 669.642 101.456, 668.151 100.340 C 667.243 99.661, 659.525 95.526, 651 91.152 C 608.390 69.290, 566.734 57.944, 508.500 52.339 C 493.150 50.862, 477.764 50.588, 404 50.478 C 314.840 50.346, 304.343 49.983, 272 45.910 C 225.887 40.103, 182.055 26.425, 145.696 6.496 C 133.748 -0.052, 133 -0.406, 133 0.497 M 399.739 81.594 C 399.333 82.001, 399 85.585, 399 89.558 C 399 96.610, 398.934 96.799, 396.250 97.455 C 388.591 99.326, 383 101.228, 383 101.963 C 383 102.414, 384.238 103.086, 385.750 103.455 C 387.262 103.825, 390.863 104.805, 393.750 105.634 L 399 107.142 399 115.071 C 399 119.432, 399.337 122.973, 399.750 122.941 C 400.163 122.909, 402.867 120.037, 405.760 116.560 L 411.019 110.238 419.184 112.612 C 423.674 113.917, 427.559 114.775, 427.816 114.517 C 428.074 114.259, 426.196 111.511, 423.642 108.409 C 421.089 105.308, 419 102.331, 419 101.795 C 419 101.258, 421.089 98.374, 423.642 95.385 C 426.196 92.396, 428.042 89.709, 427.745 89.412 C 427.449 89.115, 423.538 89.878, 419.055 91.106 L 410.905 93.340 407.702 89.445 C 401.415 81.797, 400.469 80.864, 399.739 81.594 M 488.020 108.679 L 488 116.858 482.750 118.366 C 479.863 119.195, 476.258 120.176, 474.741 120.547 C 470.134 121.673, 470.693 122.771, 476.737 124.476 C 488.559 127.811, 487.440 126.714, 488 135.513 L 488.500 143.369 494.049 137.076 L 499.598 130.783 507.113 132.891 C 511.246 134.051, 515.199 135, 515.898 135 C 516.596 135, 515.668 133.174, 513.834 130.942 C 512 128.710, 509.634 125.798, 508.576 124.470 L 506.651 122.056 511.940 115.976 C 514.849 112.631, 517.030 109.697, 516.788 109.455 C 516.546 109.213, 512.557 110.131, 507.924 111.496 L 499.500 113.978 497.500 111.707 C 496.400 110.458, 493.821 107.426, 491.770 104.968 L 488.039 100.500 488.020 108.679 M 307 111 C 307 116.331, 306.619 119, 305.858 119 C 303.354 119, 290.851 123.186, 291.457 123.821 C 291.814 124.194, 295.344 125.409, 299.303 126.519 L 306.500 128.539 306.818 137.019 L 307.136 145.500 313.318 138.766 L 319.500 132.031 327.750 134.394 C 334.055 136.200, 336 136.446, 336 135.438 C 336 134.712, 335.591 133.865, 335.091 133.556 C 334.590 133.247, 332.358 130.816, 330.129 128.154 L 326.076 123.314 331.159 117.611 C 333.954 114.475, 335.964 111.631, 335.626 111.292 C 335.287 110.953, 331.520 111.652, 327.255 112.845 L 319.500 115.014 314 108.984 C 310.975 105.668, 308.163 102.964, 307.750 102.977 C 307.337 102.990, 307 106.600, 307 111 M 241.792 165.666 L 241.500 173.331 233 176.022 C 228.107 177.571, 225.137 178.963, 226 179.302 C 226.825 179.626, 230.762 180.835, 234.750 181.988 L 242 184.085 242.032 192.292 L 242.063 200.500 244.282 197.968 C 245.502 196.575, 248.116 193.540, 250.091 191.223 L 253.683 187.011 262.010 189.503 C 266.590 190.874, 270.542 191.791, 270.792 191.541 C 271.042 191.292, 268.937 188.324, 266.115 184.946 L 260.983 178.805 266.078 172.402 C 268.880 168.881, 270.600 166, 269.900 166 C 269.200 166, 265.262 166.944, 261.149 168.098 L 253.671 170.197 248.879 164.848 C 246.243 161.907, 244.067 159.162, 244.043 158.750 C 244.019 158.338, 243.569 158, 243.042 158 C 242.515 158, 241.953 161.449, 241.792 165.666 M 555 166.892 C 555 174.671, 554.961 174.793, 552.250 175.455 C 544.973 177.233, 539 179.210, 539 179.842 C 539 180.226, 542.487 181.449, 546.750 182.558 L 554.500 184.575 554.790 192.788 C 554.950 197.304, 555.335 201, 555.647 201 C 555.958 201, 557.177 199.762, 558.356 198.250 C 559.535 196.738, 561.966 193.866, 563.759 191.869 L 567.018 188.238 575.207 190.619 C 579.712 191.929, 583.797 193, 584.285 193 C 584.774 193, 582.884 190.261, 580.087 186.913 C 577.289 183.564, 575 180.374, 575 179.822 C 575 179.270, 577.089 176.374, 579.642 173.385 C 582.196 170.396, 584.036 167.702, 583.732 167.398 C 583.428 167.094, 579.847 167.780, 575.776 168.923 C 571.704 170.065, 567.951 170.997, 567.436 170.993 C 566.921 170.989, 564.278 168.289, 561.563 164.993 C 558.847 161.697, 556.259 159, 555.813 159 C 555.366 159, 555 162.551, 555 166.892 M 409.500 171.490 C 390.032 174.938, 368.710 183.551, 353.350 194.169 C 331.984 208.939, 305.098 242.605, 286.692 277.635 C 280.042 290.291, 263.193 317.672, 257.964 324.319 C 256.804 325.793, 255.100 326.976, 254.177 326.948 C 253.255 326.919, 250.250 324.162, 247.500 320.821 L 242.500 314.748 242.207 322.443 C 241.916 330.064, 241.882 330.151, 238.707 331.442 C 236.943 332.159, 233.137 333.298, 230.250 333.973 C 227.363 334.647, 225 335.538, 225 335.951 C 225 336.365, 228.037 337.509, 231.750 338.494 C 240.596 340.841, 242.001 341.635, 241.996 344.285 C 241.991 347.335, 239.655 350.929, 225.692 369.366 C 206.958 394.104, 186.008 414.922, 168.365 426.333 C 160.803 431.224, 159.214 433.803, 160.950 438.370 C 162.928 443.571, 168.087 444.298, 174.912 440.337 C 195.791 428.220, 219.816 403.569, 247.179 366.186 C 262.470 345.295, 260.727 346.714, 268.712 348.662 L 271.424 349.323 268.262 345.331 L 265.099 341.338 272.735 329.919 C 285.317 311.103, 291.759 300.548, 298.192 288.210 C 315.327 255.343, 339.628 223.713, 358.884 209.212 C 382.514 191.418, 415.278 182.369, 441.596 186.367 C 468.762 190.495, 489.236 205.317, 501.348 229.623 C 511.836 250.671, 506.044 273.637, 487.200 285.726 C 480.452 290.054, 479.066 292.819, 481.299 297.500 C 482.336 299.675, 483.908 301.190, 485.558 301.604 C 492.830 303.429, 508.689 290.278, 515.230 277 C 519.282 268.773, 522.010 257.741, 521.983 249.685 C 521.942 237.456, 516.153 222.061, 506.496 208.500 C 501.544 201.546, 490.632 190.830, 483.673 186.088 C 476.249 181.028, 463.178 175.260, 453.893 172.947 C 442.898 170.207, 420.830 169.483, 409.500 171.490 M 580.047 242.618 L 580 250.736 573.750 252.489 C 570.313 253.453, 566.375 254.686, 565 255.230 C 562.594 256.180, 562.669 256.267, 567 257.534 C 569.475 258.259, 573.413 259.352, 575.750 259.964 L 580 261.077 580 269.039 C 580 273.417, 580.337 276.976, 580.750 276.948 C 581.163 276.919, 583.705 274.219, 586.399 270.948 C 589.094 267.676, 591.912 265, 592.662 265 C 593.412 265, 597.251 265.894, 601.193 266.986 C 605.135 268.079, 608.558 268.775, 608.799 268.534 C 609.040 268.294, 607.159 265.664, 604.618 262.690 C 602.078 259.717, 600 256.706, 600 256 C 600 255.294, 602.078 252.283, 604.618 249.310 C 607.159 246.336, 609.025 243.692, 608.766 243.432 C 608.507 243.173, 604.606 243.948, 600.098 245.155 L 591.902 247.349 585.998 240.924 L 580.094 234.500 580.047 242.618 M 217.048 243.781 C 217.015 249.483, 216.611 252.192, 215.750 252.477 C 215.063 252.705, 211.149 253.861, 207.054 255.046 C 198.692 257.467, 198.849 257.787, 209.750 260.549 L 217 262.386 217.029 270.943 L 217.059 279.500 219.779 276.466 C 221.276 274.797, 223.967 271.739, 225.760 269.670 L 229.020 265.907 237.055 268.075 C 241.474 269.268, 245.305 270.028, 245.568 269.765 C 245.831 269.502, 244.011 266.814, 241.523 263.792 C 239.036 260.770, 237 257.890, 237 257.392 C 237 256.893, 239.025 254.017, 241.500 251 C 243.975 247.983, 246 245.204, 246 244.824 C 246 244.444, 242.199 245.179, 237.554 246.457 L 229.108 248.781 223.102 242.141 L 217.096 235.500 217.048 243.781 M 308.793 380.078 L 308.500 388.416 300 391.069 C 291.798 393.628, 291.599 393.761, 294.315 394.861 C 295.863 395.487, 297.469 396, 297.884 396 C 298.298 396, 300.969 396.692, 303.818 397.539 L 309 399.077 309.006 407.289 L 309.013 415.500 313.256 410.550 C 315.590 407.828, 318.175 404.800, 319 403.821 C 320.433 402.121, 320.880 402.149, 328.975 404.463 C 333.636 405.794, 337.632 406.702, 337.855 406.478 C 338.078 406.255, 335.952 403.408, 333.130 400.150 C 330.309 396.893, 328 393.901, 328 393.500 C 328 393.099, 330.309 390.107, 333.130 386.850 C 335.952 383.592, 338.062 380.729, 337.820 380.487 C 337.577 380.244, 333.598 381.207, 328.977 382.626 L 320.574 385.206 318.537 382.821 C 317.417 381.509, 314.832 378.479, 312.793 376.088 L 309.085 371.739 308.793 380.078 M 399.797 399.420 L 399.500 407.339 395.500 408.616 C 393.300 409.318, 389.574 410.388, 387.220 410.993 C 382.572 412.188, 382.405 413.393, 386.741 414.453 C 388.258 414.824, 391.863 415.805, 394.750 416.634 L 400 418.142 400.032 426.321 L 400.063 434.500 402.282 431.968 C 403.502 430.576, 406.075 427.550, 408 425.245 L 411.500 421.053 419.924 423.519 C 424.557 424.876, 428.546 425.787, 428.788 425.545 C 429.030 425.303, 426.884 422.409, 424.017 419.114 C 418.240 412.471, 418.207 413.042, 424.801 405.250 C 427.244 402.363, 428.654 400, 427.935 400 C 427.216 400, 423.229 400.954, 419.075 402.119 L 411.522 404.239 405.807 397.870 L 400.093 391.501 399.797 399.420 M 501.043 515.087 C 489.359 517.135, 480.440 523.100, 475.505 532.169 C 473.183 536.434, 472.535 539.048, 472.199 545.488 C 471.700 555.061, 472.925 560.175, 477.264 566.630 C 481.694 573.223, 488.210 577.882, 503.500 585.392 C 519.549 593.274, 524.133 596.577, 526.867 602.226 C 532.502 613.866, 526.563 626.677, 513.771 630.475 C 503.162 633.626, 491.899 631.771, 478.775 624.711 C 469.760 619.862, 469.041 620.143, 469.015 628.527 C 468.995 635.121, 470.873 637.619, 478.397 641.008 C 492.936 647.558, 511.742 647.829, 526.229 641.698 C 531.412 639.504, 539.741 631.445, 542.546 625.908 C 545.919 619.253, 547.401 609.620, 546.119 602.687 C 543.677 589.477, 536.415 582.169, 515.611 571.986 C 507.850 568.187, 499.621 563.697, 497.323 562.007 C 489.565 556.301, 486.892 546.052, 491.040 537.921 C 496.496 527.226, 512.419 525.403, 528.716 533.607 C 532.685 535.605, 536.623 536.975, 537.466 536.651 C 539.294 535.950, 539.767 530.380, 538.501 524.452 C 537.178 518.258, 514.828 512.670, 501.043 515.087 M 769.571 518.338 L 767 520.909 767 580.344 C 767 637.457, 767.075 639.871, 768.919 642.139 L 770.838 644.500 792.669 644.313 C 810.903 644.158, 815.770 643.795, 822.207 642.115 C 844.390 636.326, 857.367 622.912, 862.674 600.287 C 865.168 589.653, 865.140 567.213, 862.622 558 C 856.955 537.270, 843.807 523.961, 823.500 518.400 C 819.094 517.194, 811.473 516.625, 794.821 516.262 L 772.142 515.767 769.571 518.338 M 1150.500 517.195 C 1149.400 517.819, 1148.169 518.818, 1147.765 519.415 C 1147.361 520.012, 1147.024 548.239, 1147.015 582.143 C 1147.002 637.440, 1147.163 643.849, 1148.582 644.393 C 1149.452 644.727, 1152.570 645, 1155.510 645 C 1164.877 645, 1164.251 649.215, 1163.850 588.828 C 1163.658 559.772, 1163.618 536, 1163.763 536 C 1163.907 536, 1165.076 538.362, 1166.361 541.250 C 1168.549 546.170, 1208.863 622.568, 1215.039 633.500 C 1216.593 636.250, 1219.260 639.836, 1220.965 641.469 C 1223.668 644.057, 1224.955 644.489, 1230.970 644.828 C 1237.308 645.187, 1238.082 645.009, 1240.436 642.655 L 1243 640.091 1243 579.081 C 1243 519.785, 1242.946 518.041, 1241.066 517.035 C 1240.002 516.466, 1237.047 516, 1234.500 516 C 1225.236 516, 1226.007 511.196, 1225.949 569.285 L 1225.899 620.500 1221.348 611.500 C 1211.901 592.817, 1175.615 524.381, 1173.700 521.637 C 1172.602 520.062, 1170.209 518.150, 1168.383 517.387 C 1164.406 515.725, 1153.302 515.606, 1150.500 517.195 M 989.286 526.802 C 988.486 527.311, 987.975 531.309, 987.786 538.537 L 987.500 549.500 981 549.785 C 973.554 550.112, 972 551.358, 972 557 C 972 562.642, 973.554 563.888, 981 564.215 L 987.500 564.500 988 597 C 988.495 629.191, 988.524 629.548, 991 634.499 C 995.224 642.944, 1003.097 646.565, 1015.520 645.776 C 1027.221 645.033, 1030.932 641.650, 1029.361 633.155 C 1028.779 630.012, 1028.555 629.852, 1025.621 630.489 C 1023.904 630.861, 1020.017 631.389, 1016.983 631.660 C 1010.294 632.259, 1006.644 629.980, 1005.040 624.205 C 1004.447 622.070, 1004.009 608.526, 1004.006 592.250 L 1004 564 1015.378 564 C 1024.742 564, 1026.998 563.707, 1028.128 562.346 C 1029.911 560.197, 1029.751 552.089, 1027.902 550.918 C 1027.131 550.430, 1021.438 550.024, 1015.250 550.015 L 1004 550 1004 539.035 C 1004 529.218, 1003.798 527.962, 1002.066 527.035 C 999.818 525.832, 991.064 525.672, 989.286 526.802 M 1379.286 526.802 C 1378.486 527.311, 1377.975 531.309, 1377.786 538.537 L 1377.500 549.500 1371 549.785 C 1363.554 550.112, 1362 551.358, 1362 557 C 1362 562.642, 1363.554 563.888, 1371 564.215 L 1377.500 564.500 1378 597.030 C 1378.499 629.514, 1378.504 629.568, 1381.059 634.530 C 1385.427 643.013, 1393.147 646.562, 1405.520 645.776 C 1417.200 645.034, 1420.947 641.638, 1419.458 633.146 C 1418.923 630.091, 1418.631 629.851, 1416.185 630.462 C 1414.708 630.831, 1410.800 631.371, 1407.500 631.663 C 1402.390 632.115, 1401.097 631.876, 1398.784 630.051 C 1397.291 628.873, 1395.606 626.242, 1395.040 624.205 C 1394.447 622.070, 1394.009 608.526, 1394.006 592.250 L 1394 564 1405.250 563.985 C 1411.438 563.976, 1417.175 563.543, 1418 563.021 C 1419.012 562.382, 1419.500 560.421, 1419.500 557 C 1419.500 553.579, 1419.012 551.618, 1418 550.979 C 1417.175 550.457, 1411.438 550.024, 1405.250 550.015 L 1394 550 1394 539.200 C 1394 532.133, 1393.585 527.985, 1392.800 527.200 C 1391.478 525.878, 1381.215 525.576, 1379.286 526.802 M 784.667 530.667 C 784.300 531.033, 784 553.580, 784 580.769 L 784 630.206 800.250 629.782 C 814.275 629.417, 817.318 629.039, 822.475 627.023 C 834.186 622.446, 842.465 611.735, 845.553 597.163 C 847.410 588.401, 847.363 571.166, 845.460 563.093 C 841.180 544.935, 829.161 533.604, 811.469 531.047 C 803.589 529.908, 785.679 529.654, 784.667 530.667 M 597.185 549.118 C 589.458 550.403, 581.658 554.610, 576.095 560.493 C 566.876 570.241, 563.595 579.911, 563.540 597.500 C 563.518 604.550, 564.074 611.769, 564.889 615 C 568.279 628.444, 576.716 638.797, 587.798 643.113 C 599.161 647.537, 623.751 646.518, 634.988 641.156 C 639.306 639.097, 641.415 635.024, 640.550 630.415 C 639.767 626.244, 638.979 626.190, 629.075 629.635 C 619.866 632.837, 605.455 633.947, 598.471 631.992 C 587.930 629.041, 581.529 620.466, 580.337 607.701 L 579.711 601 609.105 600.985 C 630.940 600.974, 639.143 600.642, 641 599.695 C 643.447 598.446, 643.498 598.185, 643.405 587.459 C 643.290 574.145, 641.132 567.587, 634.399 560.099 C 629.047 554.147, 621.895 550.451, 613 549.044 C 605.653 547.881, 604.590 547.886, 597.185 549.118 M 692.226 549.121 C 679.911 550.937, 669.218 556.320, 667.870 561.382 C 666.902 565.015, 667.800 569.709, 669.595 570.398 C 670.349 570.687, 674.911 569.029, 679.733 566.712 C 687.461 562.999, 689.487 562.458, 696.829 562.144 C 712.990 561.454, 718.777 566.472, 719.252 581.591 L 719.500 589.500 705.500 590.087 C 686.831 590.869, 678.638 593.320, 671.162 600.358 C 665.345 605.835, 663.516 610.442, 663.563 619.500 C 663.612 628.906, 665.578 633.580, 671.886 639.278 C 677.342 644.207, 684.811 646.299, 695.345 645.849 C 704.450 645.459, 712.507 642.211, 717.628 636.866 C 719.138 635.290, 720.740 634, 721.187 634 C 721.634 634, 722 636.202, 722 638.893 C 722 644.435, 722.690 645, 729.459 645 C 731.990 645, 734.249 644.405, 734.957 643.552 C 735.860 642.464, 736.060 633.432, 735.760 607.302 C 735.292 566.448, 734.964 564.563, 726.949 556.791 C 723.440 553.390, 720.622 551.676, 716.796 550.616 C 709.548 548.609, 699.741 548.012, 692.226 549.121 M 914.500 548.663 C 908.415 549.609, 899.507 552.210, 895.560 554.193 C 888.989 557.494, 888 558.782, 888 564.033 C 888 571.420, 889.289 571.729, 899.553 566.804 C 907.523 562.979, 909.234 562.538, 917.503 562.177 C 925.346 561.834, 927.234 562.079, 930.808 563.902 C 936.667 566.891, 939.096 572.011, 939.323 581.854 L 939.500 589.500 925.500 590.087 C 906.831 590.869, 898.638 593.320, 891.162 600.358 C 885.758 605.446, 883.643 610.498, 883.567 618.500 C 883.477 627.867, 885.845 633.813, 891.722 638.986 C 897.298 643.895, 903.878 646, 913.644 646 C 922.567 646, 929.534 643.568, 936.500 638.021 L 941.500 634.040 941.814 638.750 C 941.987 641.341, 942.662 643.801, 943.314 644.215 C 945.204 645.417, 953.483 645.117, 954.800 643.800 C 956.338 642.262, 956.466 582.464, 954.951 573.129 C 952.357 557.140, 943.280 549.842, 924.500 548.643 C 920.650 548.398, 916.150 548.406, 914.500 548.663 M 1072.387 548.955 C 1062.818 550.440, 1052.590 554.410, 1048.947 558.053 C 1046.689 560.311, 1046.307 566.670, 1048.268 569.352 C 1049.445 570.961, 1050.191 570.775, 1058.518 566.794 C 1067.365 562.565, 1067.661 562.500, 1078.174 562.500 C 1087.462 562.500, 1089.214 562.773, 1091.674 564.605 C 1096.525 568.217, 1098.333 572.509, 1098.807 581.537 L 1099.237 589.746 1084.369 590.256 C 1072.456 590.665, 1068.242 591.211, 1063.174 593.001 C 1049.535 597.818, 1043 606.423, 1043 619.565 C 1043 629.090, 1046.409 636.042, 1053.379 640.736 C 1059.883 645.116, 1064.932 646.296, 1075 645.787 C 1084.368 645.314, 1089.207 643.429, 1096.750 637.312 L 1101 633.866 1101 638.233 C 1101 640.635, 1101.540 643.140, 1102.200 643.800 C 1103.559 645.159, 1111.819 645.401, 1113.807 644.140 C 1114.854 643.476, 1115.053 635.962, 1114.807 606.406 L 1114.500 569.500 1111.641 563.677 C 1108.308 556.890, 1103.117 552.645, 1095.564 550.530 C 1088.883 548.659, 1078.735 547.969, 1072.387 548.955 M 1303 549.090 C 1281.831 552.727, 1269.035 571.154, 1269.035 598 C 1269.035 623.631, 1279.020 639.437, 1298.500 644.641 C 1310.070 647.731, 1333.551 645.357, 1342.406 640.200 C 1345.217 638.563, 1345.527 637.876, 1345.800 632.699 C 1346.078 627.419, 1345.940 627, 1343.921 627 C 1342.722 627, 1338.538 628.213, 1334.621 629.695 C 1328.377 632.058, 1326.023 632.396, 1315.500 632.445 C 1305.057 632.493, 1302.981 632.221, 1299.500 630.347 C 1291.621 626.107, 1287.184 618.584, 1286.293 607.953 L 1285.717 601.084 1316.440 600.792 C 1353.174 600.443, 1350.461 601.568, 1349.691 587 C 1348.451 563.517, 1336.608 550.434, 1315 548.674 C 1311.425 548.383, 1306.025 548.570, 1303 549.090 M 596.748 562.365 C 587.976 565.639, 581.781 573.920, 580.375 584.250 L 579.728 589 603.864 589 L 628 589 628 585.182 C 628 575.858, 623.208 567.227, 615.946 563.472 C 611.470 561.158, 601.521 560.584, 596.748 562.365 M 1301 563.084 C 1298.525 564.206, 1295.443 566.109, 1294.151 567.312 C 1290.675 570.550, 1286.968 578.478, 1286.302 584.096 L 1285.717 589.037 1309.609 588.768 L 1333.500 588.500 1333.818 585.738 C 1333.992 584.219, 1333.388 580.406, 1332.474 577.263 C 1328.560 563.800, 1313.944 557.216, 1301 563.084 M 696.710 602.023 C 685.798 603.897, 679.997 609.583, 680.004 618.398 C 680.011 628.162, 685.786 633.419, 696.500 633.413 C 703.641 633.409, 708.301 631.260, 715.289 624.749 L 720.079 620.287 719.789 610.893 L 719.500 601.500 710.500 601.350 C 705.550 601.268, 699.344 601.571, 696.710 602.023 M 916.710 602.023 C 905.798 603.897, 899.997 609.583, 900.004 618.398 C 900.011 628.162, 905.786 633.419, 916.500 633.413 C 923.672 633.409, 928.872 631.006, 935.547 624.609 L 940.079 620.268 939.789 610.884 L 939.500 601.500 930.500 601.350 C 925.550 601.268, 919.344 601.571, 916.710 602.023 M 1076.117 602.128 C 1068.474 603.397, 1063.400 606.543, 1061 611.500 C 1058.582 616.496, 1058.487 619.678, 1060.601 624.961 C 1065.124 636.264, 1081.568 636.732, 1093.427 625.893 L 1099 620.799 1099 610.900 L 1099 601 1090.250 601.117 C 1085.438 601.181, 1079.077 601.636, 1076.117 602.128" stroke="none" fill="#084b9b" fill-rule="evenodd"/><path d="M 130.189 8.215 C 129.048 12.772, 127.373 20.100, 126.468 24.500 C 125.562 28.900, 124.415 32.991, 123.919 33.592 C 123.423 34.193, 123.239 34.906, 123.510 35.177 C 123.781 35.448, 121.517 46.206, 118.478 59.085 C 115.439 71.963, 113.082 83.175, 113.240 84 C 113.398 84.825, 117.919 66.422, 123.286 43.106 C 128.654 19.789, 132.869 0.536, 132.654 0.321 C 132.439 0.106, 131.330 3.658, 130.189 8.215 M 136.527 1.363 C 141.071 4.504, 160.313 14.249, 171 18.822 C 211.142 35.998, 248.673 44.641, 302.500 49.106 C 312.767 49.957, 344.795 50.390, 404 50.478 C 477.764 50.588, 493.150 50.862, 508.500 52.339 C 566.734 57.944, 608.390 69.290, 651 91.152 C 659.525 95.526, 667.243 99.661, 668.151 100.340 C 669.643 101.457, 724.099 232.563, 723.928 234.629 C 723.888 235.108, 708.476 244.686, 689.678 255.913 C 620.341 297.323, 581.625 321.342, 583.267 321.927 C 584.558 322.387, 583.904 323.675, 579.937 328.482 C 577.222 331.772, 575 334.731, 575 335.058 C 575 335.384, 576.144 336.726, 577.542 338.040 C 579.825 340.184, 580.310 340.286, 582.292 339.039 C 607.771 323.009, 728.827 250, 729.928 250 C 730.398 250, 731.464 251.688, 732.297 253.750 C 733.130 255.813, 749.378 295.443, 768.405 341.817 C 787.432 388.191, 803 426.584, 803 427.134 C 803 427.685, 802.213 427.894, 801.250 427.601 C 798.065 426.628, 776.672 423.102, 766 421.791 C 749.534 419.767, 694.162 420.122, 676 422.368 C 644.598 426.251, 621.979 430.587, 589.500 438.950 C 540.999 451.437, 500.302 465.556, 402 504 C 282.838 550.601, 233.897 566.641, 174.814 578.455 C 138.248 585.767, 112.680 588.399, 78.500 588.368 C 51.719 588.344, 37.924 587.270, 15.082 583.428 C 0.575 580.988, -3.987 580.759, 4.497 582.895 C 23.897 587.780, 58.704 590.469, 91.500 589.618 C 125.746 588.728, 151.912 585.208, 195 575.694 C 204.825 573.525, 228.089 567.311, 240.907 563.433 C 247.181 561.535, 252.540 560.207, 252.815 560.482 C 253.091 560.757, 253.920 560.481, 254.658 559.869 C 255.396 559.256, 256.007 559.148, 256.015 559.628 C 256.024 560.107, 256.361 560.029, 256.765 559.454 C 257.169 558.879, 263.575 556.471, 271 554.104 C 286.184 549.262, 327.807 534.366, 347.500 526.725 C 354.650 523.951, 368.322 518.613, 377.881 514.863 C 387.441 511.112, 395.653 508.286, 396.131 508.581 C 396.609 508.876, 397.002 508.754, 397.004 508.309 C 397.006 507.864, 398.918 506.737, 401.254 505.805 C 416.262 499.814, 426.217 496.052, 427.740 495.796 C 428.708 495.633, 429.725 495.255, 430 494.956 C 431.185 493.665, 455.008 484.887, 455.873 485.422 C 456.399 485.747, 456.984 485.549, 457.172 484.983 C 457.525 483.924, 473.955 477.494, 498.382 468.857 L 512.264 463.948 510.431 466.724 C 503.691 476.933, 493.344 501.767, 491.445 512.296 C 490.869 515.491, 489.912 516.634, 485.409 519.515 C 474.724 526.350, 470.477 535.657, 471.359 550.302 C 472.031 561.457, 472.115 562, 473.167 562 C 473.625 562, 474 562.502, 474 563.116 C 474 565.526, 481.264 573.938, 486.398 577.475 C 491.037 580.669, 491.979 581.872, 492.962 585.852 C 495.137 594.655, 502.050 610.967, 504.450 612.959 C 505.303 613.666, 506 614.770, 506 615.411 C 506 617.110, 509.670 624.035, 511.976 626.687 L 513.962 628.971 511.383 629.619 C 509.964 629.975, 504.797 630.038, 499.900 629.759 C 491.809 629.297, 490.155 628.828, 481.749 624.614 C 471.312 619.381, 469.445 619.050, 468.399 622.250 C 467.120 626.164, 467.690 633.878, 469.458 636.576 C 471.257 639.322, 481.351 644.596, 486.750 645.611 C 488.538 645.948, 490.004 646.510, 490.008 646.861 C 490.012 647.213, 493.695 647.639, 498.191 647.810 C 506.514 648.125, 518.981 646.563, 522.377 644.779 C 523.733 644.067, 524.492 644.169, 525.112 645.147 C 525.778 646.198, 525.973 646.110, 525.985 644.750 C 526.003 642.690, 527.072 642.510, 528.947 644.250 C 530.044 645.268, 530.185 645.189, 529.707 643.823 C 529.053 641.958, 535.168 636.559, 536.537 637.793 C 536.968 638.182, 537.019 637.974, 536.651 637.330 C 536.275 636.674, 537.194 635.210, 538.740 633.998 C 540.258 632.808, 541.818 631.085, 542.206 630.167 C 542.594 629.250, 542.766 630.300, 542.588 632.500 C 542.410 634.700, 542.460 635.487, 542.699 634.250 C 542.938 633.013, 543.553 632, 544.066 632 C 544.580 632, 545 631.325, 545 630.500 C 545 628.834, 549.612 628.358, 550.167 629.967 C 550.350 630.498, 553.715 631.043, 557.645 631.176 C 565.266 631.435, 568.305 630.182, 567.346 627.177 C 566.916 625.828, 567.007 625.775, 567.813 626.909 C 568.364 627.684, 568.560 629.034, 568.248 629.909 C 567.936 630.784, 568.026 631.190, 568.446 630.811 C 568.867 630.432, 571.027 632.232, 573.247 634.811 C 576.045 638.061, 579.750 640.723, 585.320 643.484 L 593.357 647.468 606.929 647.384 C 616.007 647.327, 622.318 646.781, 625.993 645.733 C 630.107 644.560, 631.672 644.460, 632.227 645.334 C 632.713 646.097, 632.975 645.895, 632.985 644.750 C 632.999 643.159, 634.302 642.606, 637.739 642.730 C 638.421 642.754, 638.763 642.426, 638.500 642 C 638.237 641.575, 638.692 640.671, 639.511 639.991 C 640.330 639.311, 640.993 637.798, 640.985 636.628 C 640.972 634.650, 640.881 634.676, 639.708 637 C 636.873 642.611, 621.337 646.480, 604.437 645.783 C 591.079 645.233, 584.332 642.903, 576.993 636.304 C 569.813 629.849, 564.079 617.580, 563.997 608.500 C 563.975 606.163, 563.749 605.832, 562.970 607 C 562.252 608.079, 562.105 607.377, 562.446 604.500 C 562.707 602.300, 563.174 596.796, 563.482 592.269 C 565.138 567.991, 577.969 552.195, 598.639 548.988 C 612.664 546.812, 626.247 551.032, 634.399 560.099 C 641.132 567.587, 643.290 574.145, 643.405 587.459 C 643.498 598.185, 643.447 598.446, 641 599.695 C 639.143 600.642, 630.940 600.974, 609.105 600.985 L 579.711 601 580.337 607.701 C 581.529 620.466, 587.930 629.041, 598.471 631.992 C 605.455 633.947, 619.866 632.837, 629.075 629.635 C 637.971 626.541, 639.995 626.377, 640.015 628.750 C 640.029 630.258, 640.175 630.292, 641.076 629 C 641.850 627.889, 641.960 628.408, 641.500 631 C 641.055 633.507, 641.164 634.083, 641.885 633.029 C 643.437 630.760, 644.589 632.803, 643.163 635.295 C 641.903 637.497, 641.904 637.497, 643.861 635.250 C 645.571 633.286, 646.787 633, 653.410 633 C 657.803 633, 661 633.421, 661 634 C 661 634.550, 661.619 635, 662.375 635 C 663.131 635, 664.034 636.422, 664.382 638.160 C 664.730 639.898, 665.244 641.089, 665.525 640.808 C 665.807 640.527, 665.134 637.417, 664.031 633.898 C 661.524 625.900, 661.417 622.623, 663.897 629.804 C 664.905 632.721, 666.952 636.384, 668.446 637.944 C 670.294 639.873, 670.753 640.916, 669.881 641.206 C 668.901 641.533, 668.882 641.809, 669.799 642.376 C 670.460 642.784, 671 642.718, 671 642.230 C 671 641.741, 673.684 642.672, 676.965 644.298 C 682.031 646.808, 684.181 647.271, 691.215 647.364 C 700.166 647.483, 706.995 646.854, 706.998 645.911 C 706.999 645.586, 708.070 644.834, 709.377 644.238 C 711.125 643.441, 712.074 643.465, 712.961 644.327 C 713.891 645.231, 714.091 645.114, 713.834 643.816 C 713.650 642.889, 713.950 642.070, 714.500 641.995 C 715.050 641.919, 715.849 641.234, 716.276 640.471 C 716.719 639.680, 717.761 639.355, 718.700 639.715 C 719.940 640.191, 720.189 639.934, 719.705 638.674 C 719.350 637.749, 719.543 637, 720.136 637 C 720.789 637, 721.058 638.596, 720.822 641.068 C 720.460 644.867, 720.624 645.175, 723.298 645.710 C 724.873 646.025, 725.670 646.586, 725.069 646.957 C 724.469 647.328, 725.830 647.542, 728.094 647.432 C 734.106 647.141, 737.083 644.487, 737.272 639.250 C 737.420 635.143, 737.536 635, 740.712 635 C 742.521 635, 744 635.473, 744 636.051 C 744 636.721, 747.262 637.035, 753 636.919 L 762 636.737 762 624.369 C 762 616.790, 762.387 612, 763 612 C 763.614 612, 764 616.853, 764 624.559 C 764 632.677, 764.354 636.899, 765 636.500 C 765.562 636.153, 766 636.945, 766 638.306 C 766 639.639, 766.833 641.803, 767.851 643.115 C 768.869 644.427, 769.487 646.175, 769.226 647 C 768.842 648.211, 769.005 648.259, 770.075 647.250 C 771.043 646.337, 776.742 646, 791.242 646 C 805.243 646, 813.286 645.545, 818.565 644.455 C 822.679 643.605, 826.485 643.182, 827.023 643.514 C 827.560 643.846, 828 643.685, 828 643.157 C 828 641.966, 833.902 639.821, 835.115 640.571 C 835.602 640.872, 836 640.657, 836 640.094 C 836 639.531, 836.954 638.560, 838.121 637.935 C 839.287 637.311, 839.969 637.241, 839.637 637.778 C 838.583 639.484, 844.684 640, 865.925 640 C 878.935 640, 886.986 639.614, 887.642 638.958 C 888.366 638.234, 889.077 638.388, 889.965 639.458 C 890.722 640.370, 890.820 641, 890.206 641 C 889.634 641, 888.940 640.437, 888.662 639.750 C 888.385 639.063, 888.175 640.075, 888.195 642 C 888.215 643.925, 888.439 644.707, 888.692 643.738 C 888.945 642.769, 889.567 642.233, 890.076 642.547 C 890.584 642.861, 891 642.679, 891 642.142 C 891 641.605, 892.763 642.132, 894.918 643.312 C 897.072 644.492, 898.693 645.692, 898.519 645.979 C 898.054 646.747, 906.423 647.478, 915.008 647.419 C 920.892 647.379, 923.743 646.807, 928.182 644.774 C 931.298 643.348, 934.107 642.440, 934.424 642.757 C 934.741 643.074, 935.007 642.696, 935.015 641.917 C 935.028 640.700, 935.157 640.699, 935.923 641.909 C 936.413 642.684, 936.562 643.977, 936.254 644.781 C 935.850 645.833, 936.291 645.732, 937.820 644.422 C 939.797 642.729, 939.833 642.473, 938.319 640.800 C 937.423 639.810, 937.172 639, 937.762 639 C 938.351 639, 939.101 639.562, 939.428 640.250 C 939.755 640.938, 939.834 640.488, 939.605 639.251 C 939.376 638.014, 939.640 636.723, 940.192 636.381 C 940.845 635.978, 941.040 638.298, 940.750 642.999 C 940.356 649.373, 940.459 649.955, 941.616 647.869 C 942.824 645.689, 942.938 645.660, 943.044 647.500 C 943.106 648.600, 943.369 648.985, 943.627 648.356 C 943.885 647.727, 944.924 647.429, 945.935 647.693 C 946.947 647.958, 948.090 647.663, 948.476 647.039 C 948.987 646.212, 949.538 646.201, 950.500 647 C 951.414 647.759, 952.022 647.774, 952.470 647.049 C 952.826 646.472, 953.793 646, 954.618 646 C 955.443 646, 955.840 646.450, 955.500 647 C 955.160 647.550, 955.310 648, 955.834 648 C 956.358 648, 957.059 647.288, 957.393 646.418 C 958.196 644.326, 958.159 643.784, 957.250 644.346 C 956.837 644.602, 956.725 631.466, 956.999 615.155 L 957.498 585.500 957.764 614.250 L 958.031 643 972.265 643.200 C 980.094 643.309, 987.722 643.357, 989.216 643.306 C 991.009 643.244, 992.127 643.825, 992.504 645.014 C 993.263 647.404, 995.688 648.256, 996.406 646.385 C 996.728 645.545, 996.546 645.162, 995.989 645.507 C 995.445 645.843, 995 645.641, 995 645.059 C 995 643.659, 995.677 643.728, 1001 645.673 C 1005.412 647.285, 1024 648.250, 1024 646.867 C 1024 645.410, 1027.903 645.304, 1028.456 646.747 C 1028.973 648.094, 1029.255 648.079, 1030.863 646.624 C 1032.452 645.186, 1034.240 645.075, 1044.837 645.753 C 1052.848 646.266, 1057.135 646.185, 1057.416 645.516 C 1057.650 644.957, 1057.878 645.089, 1057.921 645.809 C 1057.964 646.529, 1058.450 646.840, 1059 646.500 C 1059.550 646.160, 1060.007 646.696, 1060.015 647.691 C 1060.024 648.731, 1060.343 649.063, 1060.765 648.471 C 1061.212 647.846, 1067.094 647.454, 1075.750 647.471 C 1084.592 647.489, 1090.006 647.121, 1090.015 646.500 C 1090.025 645.863, 1090.297 645.875, 1090.765 646.533 C 1091.169 647.102, 1092.175 647.537, 1093 647.500 C 1093.825 647.463, 1094.831 647.898, 1095.235 648.467 C 1095.719 649.148, 1095.975 649.105, 1095.985 648.338 C 1095.993 647.692, 1097.121 647.299, 1098.524 647.453 C 1099.913 647.606, 1101.319 647.293, 1101.649 646.758 C 1102.038 646.129, 1102.470 646.129, 1102.875 646.758 C 1103.833 648.248, 1108 649.312, 1108 648.067 C 1108 647.480, 1108.675 647, 1109.500 647 C 1110.325 647, 1111 647.405, 1111 647.899 C 1111 648.394, 1113.021 648.959, 1115.490 649.156 C 1119.134 649.446, 1119.890 649.229, 1119.499 648.006 C 1119.093 646.731, 1120.284 646.547, 1127.259 646.808 C 1132.165 646.991, 1135.905 647.608, 1136.500 648.333 C 1137.232 649.224, 1144.201 649.584, 1162.500 649.676 C 1195.381 649.841, 1236.082 651.058, 1235.585 651.862 C 1235.368 652.213, 1241.786 652.528, 1249.845 652.563 C 1283.640 652.709, 1328 654.323, 1328.015 655.407 C 1328.024 656.008, 1328.417 655.889, 1328.890 655.143 C 1329.490 654.197, 1329.957 654.122, 1330.434 654.893 C 1330.898 655.644, 1337.780 656.005, 1351.809 656.017 C 1363.189 656.026, 1382.537 656.467, 1394.805 656.997 C 1434.572 658.713, 1432.895 658.891, 1439.856 652.217 C 1441.701 650.448, 1443.614 649, 1444.106 649 C 1444.598 649, 1445 648.483, 1445 647.850 C 1445 647.218, 1447.475 644.341, 1450.500 641.458 C 1453.525 638.574, 1456.007 635.379, 1456.015 634.357 C 1456.027 632.996, 1456.251 632.847, 1456.855 633.800 C 1457.445 634.730, 1458.915 633.448, 1462.016 629.300 C 1464.401 626.110, 1467.527 621.925, 1468.963 620 C 1473.968 613.289, 1477.953 606.378, 1482.818 595.975 C 1494.764 570.429, 1499.411 549.276, 1499.290 521 C 1499.087 474.003, 1481.674 432.562, 1448.027 399 C 1429.430 380.451, 1407.461 366.834, 1382.680 358.497 C 1377.279 356.680, 1372.624 354.958, 1372.336 354.669 C 1372.048 354.381, 1372.344 347.581, 1372.995 339.558 C 1377.545 283.489, 1359.099 224.255, 1322.712 178.079 C 1318.195 172.348, 1314.631 166.948, 1314.792 166.079 C 1315.004 164.932, 1314.851 164.841, 1314.234 165.747 C 1313.629 166.637, 1311.281 164.840, 1306.054 159.488 C 1272.717 125.352, 1229.674 103.037, 1180.500 94.398 C 1166.134 91.874, 1131.126 91.380, 1115.377 93.480 C 1095.313 96.154, 1072.268 102.246, 1056.250 109.108 C 1053.912 110.110, 1052 110.702, 1052 110.425 C 1052 110.148, 1051.438 110.381, 1050.750 110.942 C 1050.063 111.504, 1045.675 113.936, 1041 116.347 C 1028.727 122.675, 1025.767 124.339, 1024.167 125.808 C 1023.383 126.527, 1022.125 126.878, 1021.371 126.589 C 1020.617 126.300, 1019.986 126.611, 1019.968 127.281 C 1019.951 127.952, 1017.108 130.406, 1013.650 132.736 C 999.568 142.223, 975.324 164.759, 966.536 176.530 C 964.906 178.714, 963.106 180.982, 962.536 181.572 C 961.966 182.162, 960.375 184.296, 959 186.315 C 957.625 188.334, 956.163 189.989, 955.750 189.993 C 955.337 189.997, 955 190.445, 955 190.990 C 955 191.534, 952.898 195.247, 950.329 199.240 C 945.334 207.004, 932 233.034, 932 235.020 C 932 235.760, 931.335 235.945, 930.250 235.505 C 884.013 216.778, 835.820 213.445, 786.857 225.589 C 773.215 228.972, 761.414 233.278, 747.134 240.082 C 740.332 243.323, 734.300 245.685, 733.729 245.333 C 733.152 244.976, 732.988 245.172, 733.360 245.773 C 733.734 246.379, 733.046 247.168, 731.796 247.565 C 730.568 247.955, 725.161 250.887, 719.781 254.082 C 714.402 257.276, 709.993 259.577, 709.985 259.195 C 709.976 258.813, 709.639 259.004, 709.235 259.621 C 708.629 260.544, 667.384 286, 666.493 286 C 666.341 286, 662.286 288.467, 657.484 291.482 C 652.681 294.497, 648.357 296.721, 647.876 296.423 C 647.394 296.126, 647 296.322, 647 296.861 C 647 297.399, 637.212 303.804, 625.250 311.094 C 613.288 318.384, 598.126 327.677, 591.559 331.746 L 579.617 339.144 577.894 336.859 C 576.213 334.631, 576.270 334.455, 580.176 329.790 C 582.379 327.159, 584.590 324.753, 585.091 324.444 C 585.591 324.135, 586 323.062, 586 322.059 C 586 320.766, 591.431 316.935, 604.703 308.868 C 614.990 302.616, 624.194 297.050, 625.157 296.500 C 626.120 295.950, 632.996 291.756, 640.437 287.181 C 647.879 282.606, 654.425 279.145, 654.984 279.490 C 655.543 279.835, 656.010 279.529, 656.023 278.809 C 656.042 277.760, 696.702 252.594, 719.142 239.742 L 723.958 236.984 726.546 242.091 C 729.589 248.096, 730.697 248.052, 728.616 242.010 C 727.811 239.675, 727.399 237.124, 727.699 236.342 C 728.002 235.553, 727.727 235.048, 727.083 235.209 C 725.977 235.486, 717.414 216.316, 716.270 211 C 715.974 209.625, 715.352 208.016, 714.889 207.425 C 714.425 206.834, 708.622 193.109, 701.992 176.925 C 695.362 160.741, 688.620 144.350, 687.009 140.500 C 677.174 116.988, 673.145 106.574, 673.601 105.837 C 673.885 105.377, 673.672 105, 673.126 105 C 672.581 105, 671.835 104.056, 671.469 102.901 C 670.812 100.832, 667.498 96.951, 666.474 97.052 C 666.184 97.081, 659.270 93.722, 651.109 89.588 C 614.367 70.978, 576.280 59.296, 534.797 53.916 C 529.460 53.223, 525.305 52.315, 525.563 51.898 C 525.821 51.480, 525.506 50.813, 524.862 50.415 C 524.131 49.963, 523.959 50.124, 524.405 50.845 C 525.321 52.329, 524.684 52.317, 501 50.439 C 485.651 49.222, 465.533 48.906, 406.500 48.954 C 365.250 48.987, 322.950 48.582, 312.500 48.054 C 273 46.058, 238.436 40.297, 206 30.303 C 191.562 25.854, 169.359 17.216, 167.446 15.303 C 166.651 14.508, 166 14.095, 166 14.387 C 166 15.204, 154.439 9.806, 145.128 4.643 C 137.276 0.288, 132.137 -1.671, 136.527 1.363 M 110.674 92.680 C 109.839 96.431, 108.136 104.084, 106.891 109.688 C 105.645 115.291, 104.373 119.850, 104.063 119.819 C 102.234 119.637, 101.688 120.150, 102.896 120.914 C 103.803 121.489, 104.019 122.446, 103.513 123.649 C 103.086 124.667, 102.605 126.476, 102.445 127.669 C 102.285 128.862, 100.517 136.882, 98.518 145.492 C 96.518 154.101, 95.038 161.615, 95.230 162.189 C 95.421 162.764, 99.541 146.049, 104.385 125.046 C 109.228 104.043, 112.967 86.633, 112.692 86.359 C 112.417 86.084, 111.509 88.928, 110.674 92.680 M 93.025 169.196 C 92.364 172.113, 91.213 177.200, 90.465 180.500 C 89.718 183.800, 88.199 190.325, 87.090 195 C 81.155 220.024, 76.949 239.346, 77.244 240.233 C 77.428 240.784, 81.536 224.045, 86.374 203.036 C 91.212 182.026, 94.957 164.624, 94.698 164.364 C 94.438 164.105, 93.685 166.279, 93.025 169.196 M 409.500 171.490 C 390.032 174.938, 368.710 183.551, 353.350 194.169 C 332.431 208.630, 303.592 244.563, 287.361 276.392 C 279.469 291.868, 255.498 329.523, 243.302 345.602 C 242.093 347.196, 234.979 356.722, 227.494 366.771 C 207.576 393.512, 186.884 414.355, 168.365 426.333 C 160.803 431.224, 159.214 433.803, 160.950 438.370 C 162.928 443.571, 168.087 444.298, 174.912 440.337 C 195.679 428.286, 219.530 403.864, 246.799 366.728 C 270.175 334.894, 288.268 307.244, 298.248 288.102 C 315.325 255.346, 339.655 223.692, 358.884 209.212 C 382.514 191.418, 415.278 182.369, 441.596 186.367 C 468.762 190.495, 489.236 205.317, 501.348 229.623 C 511.836 250.671, 506.044 273.637, 487.200 285.726 C 480.452 290.054, 479.066 292.819, 481.299 297.500 C 483.564 302.250, 486.806 302.891, 493.337 299.880 C 500.944 296.373, 510.727 286.141, 515.251 276.960 C 517.294 272.813, 519.203 267.863, 519.493 265.960 C 519.874 263.458, 519.440 264.093, 517.926 268.250 C 516.775 271.413, 515.394 274, 514.858 274 C 514.321 274, 514.119 274.384, 514.410 274.854 C 515.171 276.085, 509.498 284.789, 504.707 289.739 C 501.699 292.847, 500.365 293.648, 499.708 292.739 C 499.076 291.866, 498.966 291.987, 499.335 293.148 C 499.721 294.362, 498.321 295.616, 494.021 297.908 C 487.403 301.435, 483.890 301.046, 481.846 296.561 C 480.357 293.294, 482.607 289.751, 487.877 287.063 C 499.744 281.009, 508.978 262.244, 507.686 246.808 C 506.342 230.747, 492.873 209.925, 476.026 197.866 C 459.708 186.184, 433.727 181.281, 410.860 185.567 C 391.597 189.178, 372.233 197.396, 358.361 207.849 C 352.115 212.555, 331.655 232.594, 332.336 233.339 C 332.888 233.943, 326.594 240.867, 325.889 240.431 C 325.400 240.129, 325 240.529, 325 241.320 C 325 242.812, 310.642 264.738, 308.511 266.500 C 307.846 267.050, 307.228 267.950, 307.139 268.500 C 307.049 269.050, 306.707 270.347, 306.379 271.382 C 305.905 272.874, 305.606 272.980, 304.935 271.895 C 304.305 270.875, 304.115 271.033, 304.192 272.513 C 304.328 275.136, 291.797 298.301, 281.749 314 C 264.897 340.330, 239.560 375.486, 224.421 393.547 C 214.885 404.923, 191.166 428.499, 190.215 427.548 C 189.920 427.254, 189.071 427.881, 188.328 428.942 C 186.586 431.429, 172.559 440.822, 169.404 441.613 C 165.560 442.578, 162 439.651, 162 435.525 C 162 432.392, 162.581 431.720, 168.750 427.717 C 192.755 412.141, 213.876 389.274, 245.147 345 C 265.967 315.523, 276.317 299.384, 285.496 282.078 C 294.525 265.058, 302.517 252.189, 312.872 238 C 321.505 226.171, 326.101 220.945, 327.248 221.654 C 327.871 222.038, 328.015 221.834, 327.598 221.159 C 326.690 219.689, 342.170 204.072, 351.333 197.214 C 364.868 187.084, 387.315 177.411, 406.208 173.568 C 411.170 172.559, 419.229 172, 428.830 172 C 441.293 172, 445.304 172.396, 453.241 174.409 C 478.558 180.831, 497.630 195.090, 510.716 217.380 C 518.651 230.896, 520.322 236.621, 520.383 250.500 C 520.435 262.277, 521.666 262.277, 521.864 250.500 C 522.078 237.798, 516.496 222.544, 506.496 208.500 C 501.544 201.546, 490.632 190.830, 483.673 186.088 C 476.249 181.028, 463.178 175.260, 453.893 172.947 C 442.898 170.207, 420.830 169.483, 409.500 171.490 M 438.698 245.433 C 429.148 249.360, 422.213 254.055, 413.489 262.500 C 401.394 274.207, 393.472 287.476, 389.905 302 C 388.165 309.085, 388.170 324.948, 389.915 332 C 397.520 362.740, 433.129 383.793, 476 382.896 L 487.500 382.655 488 376.708 L 488.500 370.761 492.500 375.786 C 497.132 381.605, 496.655 381.581, 512 376.744 C 523.584 373.092, 535.072 367.862, 546.992 360.813 L 555.976 355.500 555.988 347.719 C 555.997 342.134, 555.622 339.792, 554.662 339.424 C 553.926 339.141, 547.964 342.163, 541.412 346.138 C 508.557 366.073, 477.728 372.074, 447.535 364.412 C 430.548 360.101, 413.679 348.258, 408.064 336.701 C 398.100 316.191, 404.713 291.606, 425.389 272.297 C 433.262 264.945, 445.266 258, 450.103 258 C 454.079 258, 457 254.824, 457 250.500 C 457 242.921, 449.714 240.904, 438.698 245.433 M 441.776 245.699 C 439.112 246.588, 437.326 247.718, 437.680 248.292 C 438.034 248.864, 437.816 249.004, 437.184 248.614 C 433.618 246.410, 413.862 261.954, 404.286 274.500 C 397.529 283.353, 390.080 300.161, 391.396 303.589 C 391.716 304.422, 391.596 304.868, 391.130 304.580 C 389.651 303.666, 388.957 317.549, 390.079 325.614 C 392.670 344.240, 402.239 357.425, 421.256 368.571 C 424.572 370.514, 427.920 371.861, 428.695 371.564 C 429.470 371.266, 429.853 371.429, 429.546 371.926 C 429.238 372.423, 431.128 373.586, 433.744 374.511 C 436.360 375.435, 439.494 376.581, 440.710 377.056 C 448.030 379.919, 469.900 382.432, 479.592 381.524 L 487 380.829 487 374.915 C 487 371.662, 487.346 369, 487.770 369 C 488.193 369, 490.331 371.281, 492.520 374.070 C 496.294 378.878, 496.692 379.110, 500.209 378.565 C 510.625 376.949, 531.432 368.422, 546.047 359.780 L 554.976 354.500 554.988 347.750 C 554.996 343.146, 554.617 341, 553.796 341 C 553.133 341, 547.806 343.917, 541.957 347.481 C 536.108 351.046, 528.775 355.129, 525.662 356.555 C 522.548 357.980, 520 359.590, 520 360.132 C 520 360.674, 519.583 360.860, 519.074 360.546 C 518.564 360.231, 515.752 360.855, 512.824 361.932 C 498.697 367.130, 491.246 368.353, 473.500 368.383 C 457.784 368.409, 455.783 368.201, 447 365.621 C 428.603 360.217, 413.665 350.149, 407.654 339.105 C 399.146 323.474, 401.054 302.774, 412.610 285.328 C 421.292 272.220, 437.740 258.883, 446.971 257.466 C 453.235 256.504, 455.468 254.823, 455.805 250.814 C 456.341 244.432, 451.198 242.556, 441.776 245.699 M 72.383 255.810 C 72.658 256.256, 72.468 258.394, 71.961 260.560 C 62.075 302.757, 55.934 330.302, 56.220 331.159 C 56.526 332.078, 74.040 257.842, 74.011 255.750 C 74.005 255.338, 73.523 255, 72.941 255 C 72.359 255, 72.107 255.365, 72.383 255.810 M 54.137 337.696 C 51.044 351.356, 32.863 430.142, 25.392 462.262 C 20.689 482.481, 17.003 499.509, 17.201 500.102 C 17.398 500.695, 26.252 463.533, 36.876 417.519 C 47.500 371.506, 55.975 333.641, 55.709 333.375 C 55.443 333.110, 54.736 335.054, 54.137 337.696 M 566.051 344.349 C 565.473 344.927, 565 345.850, 565 346.400 C 565 346.956, 565.533 346.867, 566.200 346.200 C 566.860 345.540, 567.872 345.014, 568.450 345.032 C 569.028 345.049, 568.646 345.710, 567.603 346.500 C 566.559 347.290, 565.382 347.736, 564.986 347.492 C 564.184 346.995, 560.442 350.775, 561.092 351.425 C 561.623 351.957, 572 345.726, 572 344.876 C 572 343.708, 567.124 343.276, 566.051 344.349 M 15.207 506.768 C 10.045 527.796, 0.005 572.772, 0.225 573.879 C 0.376 574.638, 4.254 558.967, 8.843 539.056 C 13.432 519.144, 17.002 502.669, 16.778 502.444 C 16.553 502.220, 15.846 504.165, 15.207 506.768 M 501.043 515.087 C 489.359 517.135, 480.440 523.100, 475.505 532.169 C 473.183 536.434, 472.535 539.048, 472.199 545.488 C 471.700 555.061, 472.925 560.175, 477.264 566.630 C 481.694 573.223, 488.210 577.882, 503.500 585.392 C 519.549 593.274, 524.133 596.577, 526.867 602.226 C 532.502 613.866, 526.563 626.677, 513.771 630.475 C 503.162 633.626, 491.899 631.771, 478.775 624.711 C 469.760 619.862, 469.041 620.143, 469.015 628.527 C 468.995 635.121, 470.873 637.619, 478.397 641.008 C 492.936 647.558, 511.742 647.829, 526.229 641.698 C 531.412 639.504, 539.741 631.445, 542.546 625.908 C 545.919 619.253, 547.401 609.620, 546.119 602.687 C 543.677 589.477, 536.415 582.169, 515.611 571.986 C 507.850 568.187, 499.621 563.697, 497.323 562.007 C 489.565 556.301, 486.892 546.052, 491.040 537.921 C 496.496 527.226, 512.419 525.403, 528.716 533.607 C 532.685 535.605, 536.623 536.975, 537.466 536.651 C 539.294 535.950, 539.767 530.380, 538.501 524.452 C 537.178 518.258, 514.828 512.670, 501.043 515.087 M 769.571 518.338 L 767 520.909 767 580.344 C 767 637.457, 767.075 639.871, 768.919 642.139 L 770.838 644.500 792.669 644.313 C 810.903 644.158, 815.770 643.795, 822.207 642.115 C 844.390 636.326, 857.367 622.912, 862.674 600.287 C 865.168 589.653, 865.140 567.213, 862.622 558 C 856.955 537.270, 843.807 523.961, 823.500 518.400 C 819.094 517.194, 811.473 516.625, 794.821 516.262 L 772.142 515.767 769.571 518.338 M 1150.500 517.195 C 1149.400 517.819, 1148.169 518.818, 1147.765 519.415 C 1147.361 520.012, 1147.024 548.239, 1147.015 582.143 C 1147.002 637.440, 1147.163 643.849, 1148.582 644.393 C 1149.452 644.727, 1152.570 645, 1155.510 645 C 1164.877 645, 1164.251 649.215, 1163.850 588.828 C 1163.658 559.772, 1163.618 536, 1163.763 536 C 1163.907 536, 1165.076 538.362, 1166.361 541.250 C 1168.549 546.170, 1208.863 622.568, 1215.039 633.500 C 1216.593 636.250, 1219.260 639.836, 1220.965 641.469 C 1223.668 644.057, 1224.955 644.489, 1230.970 644.828 C 1237.308 645.187, 1238.082 645.009, 1240.436 642.655 L 1243 640.091 1243 579.081 C 1243 519.785, 1242.946 518.041, 1241.066 517.035 C 1240.002 516.466, 1237.047 516, 1234.500 516 C 1225.236 516, 1226.007 511.196, 1225.949 569.285 L 1225.899 620.500 1221.348 611.500 C 1211.901 592.817, 1175.615 524.381, 1173.700 521.637 C 1172.602 520.062, 1170.209 518.150, 1168.383 517.387 C 1164.406 515.725, 1153.302 515.606, 1150.500 517.195 M 989.286 526.802 C 988.486 527.311, 987.975 531.309, 987.786 538.537 L 987.500 549.500 981 549.785 C 973.554 550.112, 972 551.358, 972 557 C 972 562.642, 973.554 563.888, 981 564.215 L 987.500 564.500 988 597 C 988.495 629.191, 988.524 629.548, 991 634.499 C 995.224 642.944, 1003.097 646.565, 1015.520 645.776 C 1024.028 645.235, 1028.373 643.377, 1028.841 640.079 C 1029.103 638.231, 1029.388 638.002, 1030.075 639.088 C 1030.667 640.022, 1030.951 638.807, 1030.914 635.500 C 1030.874 631.794, 1030.637 631.018, 1030 632.500 C 1029.195 634.373, 1029.136 634.350, 1029.070 632.137 C 1029.007 630.002, 1028.686 629.840, 1025.750 630.470 C 1023.962 630.853, 1020.017 631.389, 1016.983 631.660 C 1010.294 632.259, 1006.644 629.980, 1005.040 624.205 C 1004.447 622.070, 1004.009 608.526, 1004.006 592.250 L 1004 564 1015.378 564 C 1024.742 564, 1026.998 563.707, 1028.128 562.346 C 1029.911 560.197, 1029.751 552.089, 1027.902 550.918 C 1027.131 550.430, 1021.438 550.024, 1015.250 550.015 L 1004 550 1004 539.035 C 1004 529.218, 1003.798 527.962, 1002.066 527.035 C 999.818 525.832, 991.064 525.672, 989.286 526.802 M 1379.286 526.802 C 1378.486 527.311, 1377.975 531.309, 1377.786 538.537 L 1377.500 549.500 1371 549.785 C 1363.554 550.112, 1362 551.358, 1362 557 C 1362 562.642, 1363.554 563.888, 1371 564.215 L 1377.500 564.500 1378 597.030 C 1378.499 629.514, 1378.504 629.568, 1381.059 634.530 C 1385.427 643.013, 1393.147 646.562, 1405.520 645.776 C 1417.200 645.034, 1420.947 641.638, 1419.458 633.146 C 1418.923 630.091, 1418.631 629.851, 1416.185 630.462 C 1414.708 630.831, 1410.704 631.379, 1407.287 631.680 C 1401.348 632.204, 1400.938 632.092, 1397.974 629.128 C 1395.158 626.312, 1394.921 625.590, 1395.393 621.264 C 1395.789 617.630, 1395.714 617.212, 1395.074 619.500 C 1394.569 621.311, 1394.190 610.911, 1394.118 593.250 L 1394 564 1405.250 563.985 C 1411.438 563.976, 1417.175 563.543, 1418 563.021 C 1419.012 562.382, 1419.500 560.421, 1419.500 557 C 1419.500 553.579, 1419.012 551.618, 1418 550.979 C 1417.175 550.457, 1411.438 550.024, 1405.250 550.015 L 1394 550 1394 539.200 C 1394 532.133, 1393.585 527.985, 1392.800 527.200 C 1391.478 525.878, 1381.215 525.576, 1379.286 526.802 M 784.667 530.667 C 784.300 531.033, 784 553.580, 784 580.769 L 784 630.206 800.250 629.782 C 814.275 629.417, 817.318 629.039, 822.475 627.023 C 834.186 622.446, 842.465 611.735, 845.553 597.163 C 847.410 588.401, 847.363 571.166, 845.460 563.093 C 841.180 544.935, 829.161 533.604, 811.469 531.047 C 803.589 529.908, 785.679 529.654, 784.667 530.667 M 785 586.833 C 785 623.648, 785.190 629, 786.500 629 C 787.325 629, 788 628.523, 788 627.941 C 788 627.359, 787.640 627.105, 787.200 627.377 C 786.759 627.649, 786.275 609.341, 786.122 586.692 C 785.970 564.043, 785.655 545.322, 785.423 545.090 C 785.190 544.857, 785 563.642, 785 586.833 M 692.226 549.121 C 679.911 550.937, 669.218 556.320, 667.870 561.382 C 666.902 565.015, 667.800 569.709, 669.595 570.398 C 670.349 570.687, 674.911 569.029, 679.733 566.712 C 687.461 562.999, 689.487 562.458, 696.829 562.144 C 712.990 561.454, 718.777 566.472, 719.252 581.591 L 719.500 589.500 705.500 590.087 C 686.831 590.869, 678.638 593.320, 671.162 600.358 C 667.630 603.684, 664 609.847, 664 612.519 C 664 613.399, 663.532 613.829, 662.960 613.475 C 662.310 613.073, 662.100 613.708, 662.399 615.166 C 662.663 616.450, 663.155 619.928, 663.493 622.895 C 665.240 638.237, 676.897 646.638, 695.345 645.849 C 704.450 645.459, 712.507 642.211, 717.628 636.866 C 719.138 635.290, 720.740 634, 721.187 634 C 721.634 634, 722 636.202, 722 638.893 C 722 644.435, 722.690 645, 729.459 645 C 731.990 645, 734.249 644.405, 734.957 643.552 C 735.860 642.464, 736.060 633.432, 735.760 607.302 C 735.292 566.448, 734.964 564.563, 726.949 556.791 C 723.440 553.390, 720.622 551.676, 716.796 550.616 C 709.548 548.609, 699.741 548.012, 692.226 549.121 M 914.500 548.663 C 908.415 549.609, 899.507 552.210, 895.560 554.193 C 888.989 557.494, 888 558.782, 888 564.033 C 888 571.420, 889.289 571.729, 899.553 566.804 C 907.523 562.979, 909.234 562.538, 917.503 562.177 C 925.346 561.834, 927.234 562.079, 930.808 563.902 C 936.667 566.891, 939.096 572.011, 939.323 581.854 L 939.500 589.500 925.500 590.087 C 910.702 590.707, 905.389 591.755, 897.953 595.524 C 893 598.034, 886.638 604.415, 885.493 608.022 C 885.038 609.455, 884.525 609.849, 884.070 609.113 C 883.678 608.480, 883.435 612.133, 883.528 617.231 C 883.738 628.677, 885.596 633.594, 891.761 639.021 C 897.296 643.893, 903.903 646, 913.644 646 C 922.567 646, 929.534 643.568, 936.500 638.021 L 941.500 634.040 941.814 638.750 C 941.987 641.341, 942.662 643.801, 943.314 644.215 C 945.204 645.417, 953.483 645.117, 954.800 643.800 C 956.338 642.262, 956.466 582.464, 954.951 573.129 C 952.357 557.140, 943.280 549.842, 924.500 548.643 C 920.650 548.398, 916.150 548.406, 914.500 548.663 M 1072.387 548.955 C 1062.818 550.440, 1052.590 554.410, 1048.947 558.053 C 1046.689 560.311, 1046.307 566.670, 1048.268 569.352 C 1049.445 570.961, 1050.191 570.775, 1058.518 566.794 C 1067.365 562.565, 1067.661 562.500, 1078.174 562.500 C 1087.462 562.500, 1089.214 562.773, 1091.674 564.605 C 1096.525 568.217, 1098.333 572.509, 1098.807 581.537 L 1099.237 589.746 1084.369 590.256 C 1072.456 590.665, 1068.242 591.211, 1063.174 593.001 C 1049.535 597.818, 1043 606.423, 1043 619.565 C 1043 629.090, 1046.409 636.042, 1053.379 640.736 C 1059.883 645.116, 1064.932 646.296, 1075 645.787 C 1084.368 645.314, 1089.207 643.429, 1096.750 637.312 L 1101 633.866 1101 638.233 C 1101 640.635, 1101.540 643.140, 1102.200 643.800 C 1103.559 645.159, 1111.819 645.401, 1113.807 644.140 C 1114.854 643.476, 1115.053 635.962, 1114.807 606.406 L 1114.500 569.500 1111.641 563.677 C 1108.308 556.890, 1103.117 552.645, 1095.564 550.530 C 1088.883 548.659, 1078.735 547.969, 1072.387 548.955 M 1303 549.090 C 1281.831 552.727, 1269.035 571.154, 1269.035 598 C 1269.035 623.631, 1279.020 639.437, 1298.500 644.641 C 1310.070 647.731, 1333.551 645.357, 1342.406 640.200 C 1345.217 638.563, 1345.527 637.876, 1345.800 632.699 C 1346.078 627.419, 1345.940 627, 1343.921 627 C 1342.722 627, 1338.538 628.213, 1334.621 629.695 C 1328.377 632.058, 1326.023 632.396, 1315.500 632.445 C 1305.057 632.493, 1302.981 632.221, 1299.500 630.347 C 1291.621 626.107, 1287.184 618.584, 1286.293 607.953 L 1285.717 601.084 1316.440 600.792 C 1353.174 600.443, 1350.461 601.568, 1349.691 587 C 1348.451 563.517, 1336.608 550.434, 1315 548.674 C 1311.425 548.383, 1306.025 548.570, 1303 549.090 M 596.748 562.365 C 587.976 565.639, 581.781 573.920, 580.375 584.250 L 579.728 589 603.864 589 L 628 589 627.985 584.250 C 627.976 581.638, 627.629 580.036, 627.212 580.691 C 626.793 581.351, 626.455 580.181, 626.455 578.073 C 626.455 573.154, 622.331 567.116, 616.880 564.053 C 611.771 561.181, 602.094 560.370, 596.748 562.365 M 1301 563.084 C 1298.525 564.206, 1295.443 566.109, 1294.151 567.312 C 1290.675 570.550, 1286.968 578.478, 1286.302 584.096 L 1285.717 589.037 1309.609 588.768 L 1333.500 588.500 1333.818 585.738 C 1333.992 584.219, 1333.388 580.406, 1332.474 577.263 C 1328.560 563.800, 1313.944 557.216, 1301 563.084 M 1224.425 594 C 1224.425 605.825, 1224.569 610.663, 1224.746 604.750 C 1224.923 598.837, 1224.923 589.163, 1224.746 583.250 C 1224.569 577.337, 1224.425 582.175, 1224.425 594 M 1116.220 614.500 C 1116.163 631.606, 1116.471 641.646, 1117.011 640.305 C 1117.515 639.054, 1117.555 627.021, 1117.104 612.305 L 1116.313 586.500 1116.220 614.500 M 986.419 607 C 986.419 617.725, 986.566 622.112, 986.746 616.750 C 986.925 611.388, 986.925 602.612, 986.746 597.250 C 986.566 591.888, 986.419 596.275, 986.419 607 M 1376.402 608 C 1376.402 616.525, 1376.556 620.013, 1376.743 615.750 C 1376.931 611.487, 1376.931 604.513, 1376.743 600.250 C 1376.556 595.987, 1376.402 599.475, 1376.402 608 M 696.710 602.023 C 685.798 603.897, 679.997 609.583, 680.004 618.398 C 680.011 628.162, 685.786 633.419, 696.500 633.413 C 703.641 633.409, 708.301 631.260, 715.289 624.749 L 720.079 620.287 719.789 610.893 L 719.500 601.500 710.500 601.350 C 705.550 601.268, 699.344 601.571, 696.710 602.023 M 916.710 602.023 C 905.798 603.897, 899.997 609.583, 900.004 618.398 C 900.011 628.162, 905.786 633.419, 916.500 633.413 C 923.672 633.409, 928.872 631.006, 935.547 624.609 L 940.079 620.268 939.789 610.884 L 939.500 601.500 930.500 601.350 C 925.550 601.268, 919.344 601.571, 916.710 602.023 M 1076.117 602.128 C 1068.474 603.397, 1063.400 606.543, 1061 611.500 C 1058.582 616.496, 1058.487 619.678, 1060.601 624.961 C 1065.124 636.264, 1081.568 636.732, 1093.427 625.893 L 1099 620.799 1099 610.900 L 1099 601 1090.250 601.117 C 1085.438 601.181, 1079.077 601.636, 1076.117 602.128 M 581.118 605.250 C 581.183 607.038, 581.538 609.850, 581.907 611.500 C 582.529 614.287, 582.621 614.341, 583.195 612.250 C 583.720 610.338, 584.495 610, 588.347 610 C 590.841 610, 593.160 609.550, 593.500 609 C 593.886 608.375, 591.844 608, 588.059 608 C 582.273 608, 582 607.888, 582 605.515 L 582 603.030 611.250 602.749 L 640.500 602.469 610.750 602.234 L 581 602 581.118 605.250 M 718.355 611.500 C 718.352 616.450, 718.521 618.601, 718.731 616.280 C 718.940 613.959, 718.943 609.909, 718.736 607.280 C 718.530 604.651, 718.358 606.550, 718.355 611.500 M 765.382 623.500 C 765.384 630.100, 765.546 632.670, 765.741 629.211 C 765.937 625.752, 765.936 620.352, 765.738 617.211 C 765.540 614.070, 765.380 616.900, 765.382 623.500 M 1165.248 630 C 1165.239 640.715, 1165.371 641.770, 1166.173 637.389 C 1166.750 634.236, 1166.754 629.446, 1166.183 624.889 C 1165.270 617.596, 1165.258 617.662, 1165.248 630 M 974 621 L 963.500 621.609 974.250 621.804 C 980.880 621.925, 985 621.617, 985 621 C 985 620.450, 984.888 620.088, 984.750 620.196 C 984.612 620.303, 979.775 620.665, 974 621 M 1168.355 638.500 C 1168.352 643.450, 1168.521 645.601, 1168.731 643.280 C 1168.940 640.959, 1168.943 636.909, 1168.736 634.280 C 1168.530 631.651, 1168.358 633.550, 1168.355 638.500 M 1349.500 634 C 1349.861 634.583, 1355.510 635, 1363.059 635 C 1371.020 635, 1376 634.615, 1376 634 C 1376 633.383, 1370.814 633, 1362.441 633 C 1353.656 633, 1349.100 633.352, 1349.500 634" stroke="none" fill="#e5edf9" fill-rule="evenodd"/></svg>